#N canvas 557 148 450 300 10;
#X obj 118 38 netreceive -u 3000;
#X obj 175 64 print udp;
#X msg 278 170 send foo \$1;
#X msg 261 117 disconnect;
#X floatatom 261 222 0 0 0 0 - - -;
#X obj 261 195 netsend -u;
#X floatatom 278 143 0 0 0 0 - - -;
#X obj 310 227 print backward;
#X obj 505 529 netreceive -u -b 3003;
#X obj 504 557 print udp-binary;
#X msg 261 36 connect 172.17.0.2 3000;
#X connect 0 0 1 0;
#X connect 2 0 5 0;
#X connect 3 0 5 0;
#X connect 5 0 4 0;
#X connect 5 1 7 0;
#X connect 6 0 2 0;
#X connect 8 0 9 0;
#X connect 10 0 5 0;
